<svg width="50" height="50" viewBox="0 0 50 50" fill="none" xmlns="http://www.w3.org/2000/svg">
<path d="M25.0008 49.9986C38.8073 49.9986 49.9996 38.8063 49.9996 24.9998C49.9996 11.1933 38.8073 0.000946045 25.0008 0.000946045C11.1943 0.000946045 0.00195312 11.1933 0.00195312 24.9998C0.00195312 38.8063 11.1943 49.9986 25.0008 49.9986Z" fill="#E47710"/>
<path d="M5.17763 13.3024V11.3232H4.0751C3.67717 11.9308 3.30256 12.5545 2.95801 13.1975L5.17763 13.3024Z" fill="#357180"/>
<path d="M17.6872 12.8592V11.3232H8.41406V13.2994L17.6872 12.8592Z" fill="#357180"/>
<path d="M35.3643 11.3232H24.5176V12.5351L32.922 12.1364V13.3779H34.0019V48.3209C34.7405 48.0355 35.4613 47.7174 36.1643 47.3664V12.123C36.1644 11.6829 35.8063 11.3232 35.3643 11.3232Z" fill="#357180"/>
<path d="M6.75943 13.3783L8.41381 13.2994V11.3232H5.17773V13.3024L6.75943 13.3783Z" fill="#27636D"/>
<path d="M34.0028 48.3209V13.3783H32.9229V48.7098C33.2864 48.5878 33.6464 48.4591 34.0028 48.3209Z" fill="#D7D7BF"/>
<path d="M5.17825 13.3783V13.3029L2.95862 13.1979C2.92624 13.2571 2.89744 13.3183 2.86621 13.3783H5.17825Z" fill="#E7E7D6"/>
<path d="M5.23607 13.3783H6.75943L5.17773 13.3025V13.3783H5.23607Z" fill="#E7E7D6"/>
<path d="M2.86615 13.3783C2.13032 14.7769 1.52288 16.2516 1.05986 17.7915L3.84789 17.8803C4.3184 17.8957 4.70093 18.3051 4.70093 18.7953C4.70093 19.2855 4.3184 19.6704 3.84789 19.6551L0.602327 19.5517C0.466977 20.16 0.35167 20.7762 0.261683 21.4006L3.84789 21.5155C4.3184 21.5309 4.70093 21.9395 4.70093 22.4297C4.70093 22.92 4.3184 23.3057 3.84789 23.2903L0.0742175 23.1698C0.0320193 23.7497 0.00395754 24.3338 0.00195312 24.9244L3.84747 25.0479C4.31798 25.0625 4.70051 25.4719 4.70051 25.9621C4.70051 26.4524 4.31798 26.8381 3.84747 26.8227L0.0643009 26.7011C0.106499 27.3296 0.170113 27.9524 0.257674 28.567L3.84779 28.6819C4.3183 28.6973 4.70082 29.1059 4.70082 29.5953C4.70082 30.0864 4.3183 30.472 3.84779 30.4567L0.580912 30.3524C0.723436 31.0038 0.888431 31.6476 1.08107 32.2792L3.84821 32.368C4.31872 32.3834 4.70125 32.792 4.70125 33.2822C4.70125 33.7717 4.31872 34.1574 3.84821 34.142L1.70676 34.0734C1.95668 34.7148 2.22822 35.3456 2.52857 35.959L3.84821 36.0012C4.31872 36.0166 4.70125 36.4267 4.70125 36.9154C4.70125 37.4056 4.31872 37.7905 3.84821 37.7752L3.50714 37.7645C4.01595 38.6196 4.57486 39.4398 5.17851 40.2246V13.3783H2.86615Z" fill="#E7E7D6"/>
<path d="M5.23674 13.3783H5.17871V40.2253C5.19802 40.2502 5.21775 40.2747 5.23674 40.2995V13.3783Z" fill="#E7E7D6"/>
<path d="M5.23633 40.2991C5.67487 40.8651 6.13473 41.413 6.6199 41.9388V14.2701H6.75968V13.378H5.23633V40.2991Z" fill="#E7E7D6"/>
<path d="M17.6872 13.3783V12.8592L8.41406 13.2994V13.3783H17.6872Z" fill="#E7E7D6"/>
<path d="M32.922 13.3783V12.1368L24.5176 12.5355V13.3783H32.922Z" fill="#E7E7D6"/>
<path d="M8.41415 13.3783V13.2994L6.75977 13.3783H8.35454H8.41415Z" fill="#E7E7D6"/>
<path d="M22.6743 35.5906L21.7716 33.7594L20.8598 33.789L19.7754 35.683L22.6743 35.5906Z" fill="#E7E7D6"/>
<path d="M17.7148 39.2822L24.3887 39.0695L23.5352 37.3377L18.7412 37.4905L17.7148 39.2822Z" fill="#E7E7D6"/>
<path d="M24.5177 17.4101L30.014 17.2345C30.485 17.2191 30.8667 17.6039 30.8667 18.095C30.8667 18.5853 30.485 18.9938 30.014 19.01L24.5177 19.1849V21.0453L30.014 20.8697C30.485 20.8542 30.8667 21.2391 30.8667 21.7294C30.8667 22.2198 30.485 22.629 30.014 22.6444L24.5177 22.8201V24.5771L30.014 24.4022C30.485 24.386 30.8667 24.7716 30.8667 25.262C30.8667 25.7523 30.485 26.1608 30.014 26.1762L24.5177 26.3518V28.2122L30.014 28.0366C30.485 28.0212 30.8667 28.4053 30.8667 28.8955C30.8667 29.3858 30.485 29.7959 30.014 29.8113L24.5177 29.987V31.8984L30.014 31.7227C30.485 31.7073 30.8667 32.0922 30.8667 32.5825C30.8667 33.0712 30.485 33.4813 30.014 33.4967L24.5177 33.6716V35.5321L30.014 35.3564C30.485 35.341 30.8667 35.7267 30.8667 36.2162C30.8667 36.7064 30.485 37.115 30.014 37.1304L24.5177 37.3061V39.0647L30.014 38.8898C30.485 38.8736 30.8667 39.2592 30.8667 39.7487C30.8667 40.2382 30.485 40.6483 30.014 40.6637L9.81536 41.3089C9.34485 41.3243 8.96348 40.9386 8.96348 40.4484C8.96348 39.9589 9.34485 39.5495 9.81536 39.535L17.6868 39.2827V37.5241L9.81536 37.7756C9.34485 37.791 8.96348 37.4062 8.96348 36.9158C8.96348 36.4272 9.34485 36.017 9.81536 36.0016L17.6868 35.7501V33.8897L9.81536 34.1419C9.34485 34.1573 8.96348 33.7716 8.96348 33.2821C8.96348 32.7919 9.34485 32.3833 9.81536 32.3679L17.6868 32.1164V30.2051L9.81536 30.4566C9.34485 30.472 8.96348 30.0863 8.96348 29.5952C8.96348 29.1057 9.34485 28.6971 9.81536 28.6818L17.6868 28.4304V26.5701L9.81536 26.8223C9.34485 26.8377 8.96348 26.4521 8.96348 25.9618C8.96348 25.4716 9.34485 25.0623 9.81536 25.0476L17.6868 24.7954V23.0383L9.81536 23.2897C9.34485 23.3051 8.96348 22.9194 8.96348 22.4292C8.96348 21.939 9.34485 21.5304 9.81536 21.515L17.6868 21.2636V19.4032L9.81536 19.6546C9.34485 19.67 8.96348 19.2851 8.96348 18.7948C8.96348 18.3045 9.34485 17.8952 9.81536 17.8798L17.6868 17.6284V13.3783H8.41406V43.6978C8.59836 43.8612 8.78393 44.0239 8.97298 44.1822C8.96939 44.149 8.96348 44.1174 8.96348 44.0835C8.96348 43.5949 9.34485 43.1847 9.81536 43.1693L30.0142 42.5239C30.4851 42.5085 30.8668 42.8942 30.8668 43.3828C30.8668 43.8739 30.4851 44.2824 30.0142 44.2978L9.92434 44.94C14.1157 48.1133 19.3369 49.999 24.9994 49.999C27.7697 49.999 30.4318 49.5419 32.9218 48.7097V13.3782H24.5178V17.4101H24.5177Z" fill="#E7E7D6"/>
<path d="M8.35449 43.6457C8.37422 43.6634 8.39479 43.6797 8.4141 43.6974V13.3783H8.35449V43.6457Z" fill="#E7E7D6"/>
<path d="M6.97055 14.2701V42.3064C7.41542 42.7699 7.8757 43.2179 8.35454 43.6458V13.3783H6.75977V14.2704H6.97055V14.2701Z" fill="#E7E7D6"/>
<path d="M6.7599 14.2701H6.62012V41.9389C6.6659 41.989 6.71369 42.0359 6.7599 42.0853V14.2701Z" fill="#DCDDD8"/>
<path d="M6.97055 42.3067V14.2701H6.75977V42.0853C6.8296 42.1603 6.89986 42.2333 6.97055 42.3067Z" fill="#DCDDD8"/>
<path d="M4.70072 18.7949C4.70072 18.3046 4.3182 17.8953 3.84769 17.8799L1.05965 17.7911C0.886322 18.3686 0.73483 18.956 0.602539 19.5513L3.84811 19.6547C4.3182 19.6701 4.70072 19.2852 4.70072 18.7949Z" fill="#B9B9BA"/>
<path d="M4.70094 22.4293C4.70094 21.939 4.31841 21.5305 3.8479 21.5151L0.261684 21.4002C0.177604 21.984 0.117261 22.5746 0.0742188 23.1694L3.8479 23.2898C4.31841 23.3052 4.70094 22.9195 4.70094 22.4293Z" fill="#B9B9BA"/>
<path d="M4.70056 25.9618C4.70056 25.4716 4.31804 25.0622 3.84753 25.0476L0.00200441 24.924C0.00158243 24.9493 0 24.9733 0 24.9982C0 25.5718 0.0260574 26.1378 0.0639303 26.7011L3.84753 26.8223C4.31804 26.8377 4.70056 26.4525 4.70056 25.9618Z" fill="#B9B9BA"/>
<path d="M4.70097 29.5957C4.70097 29.1062 4.31844 28.6976 3.84793 28.6823L0.257812 28.5674C0.344213 29.1702 0.452768 29.7647 0.580734 30.3528L3.84761 30.457C4.31844 30.472 4.70097 30.0868 4.70097 29.5957Z" fill="#B9B9BA"/>
<path d="M4.70026 33.2822C4.70026 32.792 4.31774 32.3834 3.84723 32.368L1.08008 32.2792C1.26522 32.8883 1.476 33.4851 1.70577 34.0732L3.84723 34.1419C4.31774 34.1573 4.70026 33.772 4.70026 33.2822Z" fill="#B9B9BA"/>
<path d="M4.701 36.9158C4.701 36.4271 4.31847 36.017 3.84796 36.0016L2.52832 35.9594C2.82993 36.5767 3.15718 37.1784 3.5069 37.7649L3.84796 37.7756C4.31847 37.7909 4.701 37.4065 4.701 36.9158Z" fill="#B9B9BA"/>
<path d="M9.81477 17.8799C9.34426 17.8953 8.96289 18.3046 8.96289 18.7949C8.96289 19.2851 9.34426 19.6699 9.81477 19.6546L17.6862 19.4031V17.6284L9.81477 17.8799Z" fill="#B9B9BA"/>
<path d="M30.0139 19.0101C30.4848 18.9939 30.8665 18.5853 30.8665 18.0951C30.8665 17.604 30.4848 17.2192 30.0139 17.2346L24.5176 17.4102V19.185L30.0139 19.0101Z" fill="#B9B9BA"/>
<path d="M30.0139 22.6444C30.4848 22.629 30.8665 22.2197 30.8665 21.7294C30.8665 21.2392 30.4848 20.8543 30.0139 20.8696L24.5176 21.0453V22.82L30.0139 22.6444Z" fill="#B9B9BA"/>
<path d="M9.81477 21.5151C9.34426 21.5305 8.96289 21.9391 8.96289 22.4293C8.96289 22.9195 9.34426 23.3052 9.81477 23.2898L17.6862 23.0384V21.2637L9.81477 21.5151Z" fill="#B9B9BA"/>
<path d="M9.81477 25.0476C9.34426 25.0621 8.96289 25.4715 8.96289 25.9618C8.96289 26.452 9.34426 26.8377 9.81477 26.8223L17.6862 26.5701V24.7953L9.81477 25.0476Z" fill="#B9B9BA"/>
<path d="M30.0139 26.1761C30.4848 26.1606 30.8665 25.7521 30.8665 25.2618C30.8665 24.7716 30.4848 24.3859 30.0139 24.402L24.5176 24.5773V26.352L30.0139 26.1761Z" fill="#B9B9BA"/>
<path d="M30.0139 29.8112C30.4848 29.7958 30.8665 29.3856 30.8665 28.8954C30.8665 28.4052 30.4848 28.0211 30.0139 28.0365L24.5176 28.2121V29.9869L30.0139 29.8112Z" fill="#B9B9BA"/>
<path d="M9.81477 28.6819C9.34426 28.6973 8.96289 29.1059 8.96289 29.5953C8.96289 30.0864 9.34426 30.4719 9.81477 30.4566L17.6862 30.2051V28.4304L9.81477 28.6819Z" fill="#B9B9BA"/>
<path d="M30.0139 33.4965C30.4848 33.4811 30.8665 33.0709 30.8665 32.5823C30.8665 32.092 30.4848 31.7071 30.0139 31.7225L24.5176 31.8981V33.6713L30.0139 33.4965Z" fill="#B9B9BA"/>
<path d="M9.81477 32.368C9.34426 32.3834 8.96289 32.792 8.96289 33.2822C8.96289 33.7717 9.34426 34.1574 9.81477 34.142L17.6862 33.8898V32.1166L9.81477 32.368Z" fill="#B9B9BA"/>
<path d="M21.3571 32.919L20.8594 33.789L21.7712 33.7594L21.3571 32.919Z" fill="#B9B9BA"/>
<path d="M30.0139 37.1301C30.4848 37.1147 30.8665 36.7061 30.8665 36.2158C30.8665 35.7263 30.4848 35.3408 30.0139 35.3561L24.5176 35.5317V37.3056L30.0139 37.1301Z" fill="#B9B9BA"/>
<path d="M9.81477 36.0016C9.34426 36.017 8.96289 36.4271 8.96289 36.9158C8.96289 37.406 9.34426 37.791 9.81477 37.7756L17.6862 37.5241V35.7502L9.81477 36.0016Z" fill="#B9B9BA"/>
<path d="M18.7412 37.4906L23.5352 37.3377L22.6743 35.5906L19.7754 35.683L18.7412 37.4906Z" fill="#B9B9BA"/>
<path d="M24.3887 39.0695L17.7148 39.2823L17.6872 39.3317V39.2831L9.81574 39.5354C9.34523 39.5499 8.96387 39.9594 8.96387 40.4488C8.96387 40.939 9.34523 41.3247 9.81574 41.3093L30.0145 40.6639C30.4855 40.6485 30.8672 40.2383 30.8672 39.7489C30.8672 39.2595 30.4855 38.8738 30.0145 38.89L24.5182 39.0649V39.3317L24.3887 39.0695Z" fill="#B9B9BA"/>
<path d="M9.81504 44.9424L9.92401 44.9393C9.60078 44.6941 9.28376 44.4411 8.97266 44.1814C9.02076 44.6234 9.37723 44.9574 9.81504 44.9424Z" fill="#B9B9BA"/>
<path d="M30.0135 44.2973C30.4845 44.2819 30.8662 43.8733 30.8662 43.3824C30.8662 42.8937 30.4845 42.508 30.0135 42.5234L9.81477 43.1688C9.34426 43.1842 8.96289 43.5944 8.96289 44.0831C8.96289 44.117 8.96922 44.1486 8.97239 44.1817C9.28349 44.4414 9.6004 44.6945 9.92374 44.9396L30.0135 44.2973Z" fill="#B9B9BA"/>
<path d="M24.5184 11.3079H17.6875V11.3233H24.5184V11.3079Z" fill="#BB5538"/>
<path d="M24.518 12.5355V11.3233H17.6875V12.8592L24.518 12.5355Z" fill="#BB5538"/>
<path d="M17.6875 13.3783H24.518V12.5355L17.6875 12.8592V13.3783Z" fill="#BB5538"/>
<path d="M20.8601 33.7891L17.6875 33.8897V35.7501L19.7757 35.683L20.8601 33.7891Z" fill="#BB5538"/>
<path d="M24.518 17.4102V13.3783H17.6875V17.6284L24.518 17.4102Z" fill="#BB5538"/>
<path d="M17.6875 24.7954L24.518 24.5774V22.8201L17.6875 23.0383V24.7954Z" fill="#BB5538"/>
<path d="M17.6875 28.4305L24.518 28.2126V26.3522L17.6875 26.5701V28.4305Z" fill="#BB5538"/>
<path d="M17.6875 21.2636L24.518 21.0453V19.1849L17.6875 19.4032V21.2636Z" fill="#BB5538"/>
<path d="M22.6742 35.5906L24.5176 35.5323V33.6718L21.7715 33.7594L22.6742 35.5906Z" fill="#BB5538"/>
<path d="M18.7415 37.4906L17.6875 37.5241V39.283L17.7151 39.2822L18.7415 37.4906Z" fill="#BB5538"/>
<path d="M17.6875 32.1165L24.518 31.8982V29.9873L17.6875 30.2053V32.1165Z" fill="#BB5538"/>
<path d="M24.3886 39.0695L24.5176 39.0648V37.3062L23.5352 37.3377L24.3886 39.0695Z" fill="#BB5538"/>
<path d="M17.6875 19.4032L24.518 19.1849V17.4102L17.6875 17.6284V19.4032Z" fill="#BB5538"/>
<path d="M17.6875 23.0383L24.518 22.8201V21.0453L17.6875 21.2636V23.0383Z" fill="#BB5538"/>
<path d="M17.6875 26.5701L24.518 26.3522V24.5774L17.6875 24.7953V26.5701Z" fill="#BB5538"/>
<path d="M17.6875 30.2053L24.518 29.9873V28.2126L17.6875 28.4305V30.2053Z" fill="#BB5538"/>
<path d="M17.6875 33.8897L20.8601 33.7891L21.3578 32.919L21.7719 33.7594L24.518 33.6718V31.8983L17.6875 32.1165V33.8897Z" fill="#BB5538"/>
<path d="M23.5358 37.3377L24.5182 37.3062V35.5323L22.6748 35.5906L23.5358 37.3377Z" fill="#BB5538"/>
<path d="M19.7757 35.683L17.6875 35.7501V37.5241L18.7415 37.4906L19.7757 35.683Z" fill="#BB5538"/>
<path d="M17.7151 39.2822L17.6875 39.283V39.3316L17.7151 39.2822Z" fill="#BB5538"/>
<path d="M24.5177 39.3316V39.0648L24.3887 39.0695L24.5177 39.3316Z" fill="#BB5538"/>
</svg>
